<svg xmlns="http://www.w3.org/2000/svg" width="1080" height="1080" viewBox="0 0 1080 1080" version="1.1"><path d="M 378.457 306.863 C 367.404 313.604, 358.312 336.818, 350.597 378 C 346.812 398.202, 345.506 407.109, 340.541 446.560 C 334.083 497.870, 334.109 497.762, 326.297 506.114 C 321.324 511.430, 315.770 514.861, 303.835 519.992 C 291.444 525.318, 288.098 530.189, 293.274 535.365 C 294.524 536.615, 302.199 541.573, 310.328 546.381 L 325.109 555.124 324.513 561.812 C 324.186 565.490, 323.019 577.950, 321.919 589.500 C 319.263 617.412, 318.385 647.901, 319.904 659.500 C 321.887 674.651, 326.959 682, 335.433 682 C 347.934 682, 361.722 661.261, 370.170 629.748 C 371.946 623.121, 372.384 618.749, 372.400 607.500 C 372.429 585.657, 368.655 576.012, 355.590 564.541 C 351.600 561.038, 347.746 556.545, 346.169 553.557 C 343.726 548.926, 343.501 547.530, 343.500 537 C 343.500 530.675, 343.866 523.357, 344.313 520.737 C 345.007 516.675, 345.595 515.772, 348.313 514.603 C 364.734 507.537, 387.599 498, 388.118 498 C 388.474 498, 390.646 500.887, 392.945 504.416 C 402.351 518.852, 411.151 517.845, 454.161 497.412 C 470.519 489.640, 489.599 482.266, 490.644 483.311 C 490.890 483.556, 491.270 488.874, 491.489 495.129 C 492.112 512.882, 495.666 522.817, 504.106 530.406 C 516.412 541.470, 534.986 542.536, 575.819 534.524 C 626.068 524.664, 663.709 521.549, 725 522.177 C 761.856 522.555, 765 522.111, 765 516.534 C 765 512.593, 761.943 509.662, 755.965 507.871 C 750.922 506.361, 657.949 508.394, 634.616 510.525 C 625.330 511.374, 601.480 514.838, 581.616 518.224 C 551.696 523.325, 543.441 524.392, 533.500 524.441 C 518.614 524.514, 515.927 523.328, 511.652 514.794 C 508.918 509.338, 508.770 508.297, 507.976 488.996 C 507.441 476.002, 506.725 468.373, 505.952 467.442 C 504.231 465.368, 496.835 465.632, 487.001 468.119 C 477.522 470.516, 468.490 474.216, 452.415 482.286 C 438.903 489.070, 422.193 496.209, 415.656 497.992 C 409.990 499.537, 408.576 498.512, 409.493 493.525 C 411.235 484.053, 433.663 464.481, 458.015 451.181 C 468.942 445.214, 473.390 443.850, 479.349 444.641 C 483.514 445.193, 485.079 446.034, 488.505 449.559 C 492.106 453.264, 493.375 453.903, 498.365 454.526 C 501.514 454.920, 504.277 455.056, 504.504 454.829 C 505.215 454.119, 502.432 443.666, 500.557 440 C 493.033 425.296, 476.588 423.616, 453.500 435.193 C 440.052 441.936, 432.202 447.828, 416.054 463.301 C 406.154 472.787, 398.312 479.405, 394.341 481.626 C 388.379 484.960, 359.299 495.103, 351.514 496.563 L 347.770 497.266 348.465 489.883 C 349.312 480.879, 353.389 452.645, 356.101 437 C 366.954 374.379, 377.999 335.668, 389.469 320.042 C 391.411 317.397, 393.001 314.842, 393.003 314.366 C 393.004 313.890, 391.993 311.587, 390.754 309.250 C 388.761 305.486, 388.103 305, 385.002 305.004 C 383.076 305.006, 380.131 305.842, 378.457 306.863 M 772.901 508.106 C 768.632 512.676, 768.707 514.980, 773.278 519.750 C 777.157 523.798, 780.262 523.892, 784.077 520.077 C 788.598 515.556, 788.054 509.114, 782.928 506.463 C 778.664 504.258, 776.104 504.677, 772.901 508.106 M 495 561.500 C 495 567.500, 495.300 569, 496.500 569 C 497.590 569, 498 567.877, 498 564.892 C 498 561.009, 498.137 560.818, 500.500 561.411 C 501.942 561.772, 503 561.607, 503 561.019 C 503 560.459, 501.875 560, 500.500 560 C 498.389 560, 498 559.533, 498 557 C 498 555, 497.500 554, 496.500 554 C 495.300 554, 495 555.500, 495 561.500 M 652.720 560.971 C 649.688 568.763, 649.634 569, 650.892 569 C 651.382 569, 652.066 567.875, 652.411 566.500 C 652.871 564.667, 653.705 564, 655.540 564 C 657.239 564, 658.409 564.803, 659.182 566.500 C 659.808 567.875, 660.924 569, 661.661 569 C 662.397 569, 663 568.875, 663 568.721 C 663 567.515, 656.951 554.484, 656.288 554.263 C 655.822 554.107, 654.216 557.126, 652.720 560.971 M 720.437 557.529 C 723.389 560.265, 723.863 564.994, 721.429 567.429 C 720.050 568.807, 720.043 569, 721.372 569 C 723.452 569, 726 565.110, 726 561.932 C 726 559.024, 723.712 556.577, 720.187 555.718 C 717.889 555.158, 717.890 555.169, 720.437 557.529 M 522.835 562.498 C 523.140 568.401, 523.370 568.999, 525.335 568.985 C 526.628 568.976, 527.041 568.673, 526.361 568.235 C 525.735 567.831, 525.224 565.095, 525.226 562.155 C 525.231 557.064, 525.344 556.833, 527.615 557.267 C 528.927 557.518, 530 557.335, 530 556.861 C 530 556.388, 528.313 555.999, 526.250 555.998 L 522.500 555.996 522.835 562.498 M 550 562.500 C 550 568.023, 550.263 569, 551.750 569.002 C 553.272 569.004, 553.456 568.156, 553.165 562.502 C 552.918 557.721, 552.455 556, 551.415 556 C 550.340 556, 550 557.563, 550 562.500 M 577 562.500 C 577 567.611, 577.321 569, 578.500 569 C 579.679 569, 580 567.611, 580 562.500 C 580 557.389, 579.679 556, 578.500 556 C 577.321 556, 577 557.389, 577 562.500 M 601.917 559.366 L 603.998 562.733 601.999 565.274 C 599.867 567.985, 599.531 569, 600.768 569 C 601.191 569, 602.280 567.775, 603.189 566.278 L 604.840 563.555 606.081 566.278 C 606.800 567.856, 608.123 569, 609.229 569 C 611.069 569, 611.063 568.897, 609.068 566.096 C 606.577 562.597, 606.521 561.660, 608.615 558.465 C 610.616 555.412, 609.461 555.209, 607.047 558.190 L 605.274 560.380 604.102 558.190 C 603.457 556.986, 602.234 556, 601.383 556 C 600.094 556, 600.183 556.559, 601.917 559.366 M 682.500 562.455 C 682.500 567.024, 682.877 569, 683.750 569 C 684.438 569, 685 567.875, 685 566.500 C 685 565.125, 685.498 564, 686.106 564 C 686.714 564, 688.097 565.125, 689.179 566.500 C 690.260 567.875, 691.872 569, 692.760 569 C 693.991 569, 693.737 568.335, 691.689 566.198 C 689.763 564.187, 689.310 563.090, 690.087 562.313 C 690.682 561.718, 691.019 560.166, 690.835 558.865 C 690.555 556.890, 689.841 556.451, 686.500 556.205 L 682.500 555.909 682.500 562.455 M 712.655 557.829 C 710.458 560.256, 710.550 565.283, 712.829 567.345 C 715.546 569.804, 717.767 569.505, 715.488 566.987 C 713.099 564.347, 713.119 559.118, 715.524 557.358 C 717.004 556.276, 717.070 556, 715.846 556 C 715.001 556, 713.565 556.823, 712.655 557.829 M 745.575 559.759 C 745.221 561.816, 744.686 564.737, 744.386 566.250 C 744.061 567.888, 744.277 569, 744.921 569 C 745.514 569, 746 567.425, 746 565.500 C 746 561.030, 747.176 561.049, 749.324 565.553 C 751.221 569.530, 752.167 569.425, 753.986 565.034 C 755.473 561.444, 757 561.963, 757 566.059 C 757 568.058, 757.500 569, 758.561 569 C 759.855 569, 760.003 568.187, 759.423 564.250 C 758.122 555.422, 757.537 554.902, 754.923 560.250 C 753.646 562.862, 752.309 565, 751.953 565 C 751.596 565, 750.482 563.178, 749.478 560.952 C 747.036 555.537, 746.339 555.323, 745.575 559.759 M 780 562.500 C 780 568.031, 780.262 569, 781.755 569 C 783.260 569, 783.481 568.129, 783.302 562.892 C 783.098 556.906, 783.143 556.794, 785.547 557.254 C 786.896 557.512, 788 557.335, 788 556.861 C 788 556.388, 786.200 556, 784 556 L 780 556 780 562.500 M 685 560 C 685 562.459, 685.383 563.073, 686.750 562.810 C 687.854 562.597, 688.500 561.560, 688.500 560 C 688.500 558.440, 687.854 557.403, 686.750 557.190 C 685.383 556.927, 685 557.541, 685 560 M 338.566 578.250 C 337.924 585.962, 334.222 649.584, 333.855 659.235 C 333.735 662.389, 333.895 665.229, 334.211 665.545 C 335.072 666.405, 342.983 656.872, 347.239 649.845 C 359.939 628.882, 362.022 601.879, 352.241 585.015 C 349.556 580.385, 341.324 571, 339.948 571 C 339.521 571, 338.899 574.263, 338.566 578.250" stroke="none" fill="#0a0a0a" fill-rule="evenodd"/><path d="M 0 540.001 L 0 1080.002 540.250 1079.751 L 1080.500 1079.500 1080.751 539.750 L 1081.002 -0 540.501 -0 L 0 0 0 540.001 M 0.496 540.500 C 0.496 837.500, 0.610 958.851, 0.750 810.168 C 0.890 661.485, 0.890 418.485, 0.750 270.168 C 0.610 121.851, 0.496 243.500, 0.496 540.500 M 378.457 306.863 C 367.404 313.604, 358.312 336.818, 350.597 378 C 346.812 398.202, 345.506 407.109, 340.541 446.560 C 334.083 497.870, 334.109 497.762, 326.297 506.114 C 321.324 511.430, 315.770 514.861, 303.835 519.992 C 291.444 525.318, 288.098 530.189, 293.274 535.365 C 294.524 536.615, 302.199 541.573, 310.328 546.381 L 325.109 555.124 324.513 561.812 C 324.186 565.490, 323.019 577.950, 321.919 589.500 C 319.263 617.412, 318.385 647.901, 319.904 659.500 C 321.887 674.651, 326.959 682, 335.433 682 C 347.934 682, 361.722 661.261, 370.170 629.748 C 371.946 623.121, 372.384 618.749, 372.400 607.500 C 372.429 585.657, 368.655 576.012, 355.590 564.541 C 351.600 561.038, 347.746 556.545, 346.169 553.557 C 343.726 548.926, 343.501 547.530, 343.500 537 C 343.500 530.675, 343.866 523.357, 344.313 520.737 C 345.007 516.675, 345.595 515.772, 348.313 514.603 C 364.734 507.537, 387.599 498, 388.118 498 C 388.474 498, 390.646 500.887, 392.945 504.416 C 402.351 518.852, 411.151 517.845, 454.161 497.412 C 470.519 489.640, 489.599 482.266, 490.644 483.311 C 490.890 483.556, 491.270 488.874, 491.489 495.129 C 492.112 512.882, 495.666 522.817, 504.106 530.406 C 516.412 541.470, 534.986 542.536, 575.819 534.524 C 626.068 524.664, 663.709 521.549, 725 522.177 C 761.856 522.555, 765 522.111, 765 516.534 C 765 512.593, 761.943 509.662, 755.965 507.871 C 750.922 506.361, 657.949 508.394, 634.616 510.525 C 625.330 511.374, 601.480 514.838, 581.616 518.224 C 551.696 523.325, 543.441 524.392, 533.500 524.441 C 518.614 524.514, 515.927 523.328, 511.652 514.794 C 508.918 509.338, 508.770 508.297, 507.976 488.996 C 507.441 476.002, 506.725 468.373, 505.952 467.442 C 504.231 465.368, 496.835 465.632, 487.001 468.119 C 477.522 470.516, 468.490 474.216, 452.415 482.286 C 438.903 489.070, 422.193 496.209, 415.656 497.992 C 409.990 499.537, 408.576 498.512, 409.493 493.525 C 411.235 484.053, 433.663 464.481, 458.015 451.181 C 468.942 445.214, 473.390 443.850, 479.349 444.641 C 483.514 445.193, 485.079 446.034, 488.505 449.559 C 492.106 453.264, 493.375 453.903, 498.365 454.526 C 501.514 454.920, 504.277 455.056, 504.504 454.829 C 505.215 454.119, 502.432 443.666, 500.557 440 C 493.033 425.296, 476.588 423.616, 453.500 435.193 C 440.052 441.936, 432.202 447.828, 416.054 463.301 C 406.154 472.787, 398.312 479.405, 394.341 481.626 C 388.379 484.960, 359.299 495.103, 351.514 496.563 L 347.770 497.266 348.465 489.883 C 349.312 480.879, 353.389 452.645, 356.101 437 C 366.954 374.379, 377.999 335.668, 389.469 320.042 C 391.411 317.397, 393.001 314.842, 393.003 314.366 C 393.004 313.890, 391.993 311.587, 390.754 309.250 C 388.761 305.486, 388.103 305, 385.002 305.004 C 383.076 305.006, 380.131 305.842, 378.457 306.863 M 772.901 508.106 C 768.632 512.676, 768.707 514.980, 773.278 519.750 C 777.157 523.798, 780.262 523.892, 784.077 520.077 C 788.598 515.556, 788.054 509.114, 782.928 506.463 C 778.664 504.258, 776.104 504.677, 772.901 508.106 M 495 561.500 C 495 567.500, 495.300 569, 496.500 569 C 497.590 569, 498 567.877, 498 564.892 C 498 561.009, 498.137 560.818, 500.500 561.411 C 501.942 561.772, 503 561.607, 503 561.019 C 503 560.459, 501.875 560, 500.500 560 C 498.389 560, 498 559.533, 498 557 C 498 555, 497.500 554, 496.500 554 C 495.300 554, 495 555.500, 495 561.500 M 652.720 560.971 C 649.688 568.763, 649.634 569, 650.892 569 C 651.382 569, 652.066 567.875, 652.411 566.500 C 652.871 564.667, 653.705 564, 655.540 564 C 657.239 564, 658.409 564.803, 659.182 566.500 C 659.808 567.875, 660.924 569, 661.661 569 C 662.397 569, 663 568.875, 663 568.721 C 663 567.515, 656.951 554.484, 656.288 554.263 C 655.822 554.107, 654.216 557.126, 652.720 560.971 M 720.437 557.529 C 723.389 560.265, 723.863 564.994, 721.429 567.429 C 720.050 568.807, 720.043 569, 721.372 569 C 723.452 569, 726 565.110, 726 561.932 C 726 559.024, 723.712 556.577, 720.187 555.718 C 717.889 555.158, 717.890 555.169, 720.437 557.529 M 522.835 562.498 C 523.140 568.401, 523.370 568.999, 525.335 568.985 C 526.628 568.976, 527.041 568.673, 526.361 568.235 C 525.735 567.831, 525.224 565.095, 525.226 562.155 C 525.231 557.064, 525.344 556.833, 527.615 557.267 C 528.927 557.518, 530 557.335, 530 556.861 C 530 556.388, 528.313 555.999, 526.250 555.998 L 522.500 555.996 522.835 562.498 M 550 562.500 C 550 568.023, 550.263 569, 551.750 569.002 C 553.272 569.004, 553.456 568.156, 553.165 562.502 C 552.918 557.721, 552.455 556, 551.415 556 C 550.340 556, 550 557.563, 550 562.500 M 577 562.500 C 577 567.611, 577.321 569, 578.500 569 C 579.679 569, 580 567.611, 580 562.500 C 580 557.389, 579.679 556, 578.500 556 C 577.321 556, 577 557.389, 577 562.500 M 601.917 559.366 L 603.998 562.733 601.999 565.274 C 599.867 567.985, 599.531 569, 600.768 569 C 601.191 569, 602.280 567.775, 603.189 566.278 L 604.840 563.555 606.081 566.278 C 606.800 567.856, 608.123 569, 609.229 569 C 611.069 569, 611.063 568.897, 609.068 566.096 C 606.577 562.597, 606.521 561.660, 608.615 558.465 C 610.616 555.412, 609.461 555.209, 607.047 558.190 L 605.274 560.380 604.102 558.190 C 603.457 556.986, 602.234 556, 601.383 556 C 600.094 556, 600.183 556.559, 601.917 559.366 M 682.500 562.455 C 682.500 567.024, 682.877 569, 683.750 569 C 684.438 569, 685 567.875, 685 566.500 C 685 565.125, 685.498 564, 686.106 564 C 686.714 564, 688.097 565.125, 689.179 566.500 C 690.260 567.875, 691.872 569, 692.760 569 C 693.991 569, 693.737 568.335, 691.689 566.198 C 689.763 564.187, 689.310 563.090, 690.087 562.313 C 690.682 561.718, 691.019 560.166, 690.835 558.865 C 690.555 556.890, 689.841 556.451, 686.500 556.205 L 682.500 555.909 682.500 562.455 M 712.655 557.829 C 710.458 560.256, 710.550 565.283, 712.829 567.345 C 715.546 569.804, 717.767 569.505, 715.488 566.987 C 713.099 564.347, 713.119 559.118, 715.524 557.358 C 717.004 556.276, 717.070 556, 715.846 556 C 715.001 556, 713.565 556.823, 712.655 557.829 M 745.575 559.759 C 745.221 561.816, 744.686 564.737, 744.386 566.250 C 744.061 567.888, 744.277 569, 744.921 569 C 745.514 569, 746 567.425, 746 565.500 C 746 561.030, 747.176 561.049, 749.324 565.553 C 751.221 569.530, 752.167 569.425, 753.986 565.034 C 755.473 561.444, 757 561.963, 757 566.059 C 757 568.058, 757.500 569, 758.561 569 C 759.855 569, 760.003 568.187, 759.423 564.250 C 758.122 555.422, 757.537 554.902, 754.923 560.250 C 753.646 562.862, 752.309 565, 751.953 565 C 751.596 565, 750.482 563.178, 749.478 560.952 C 747.036 555.537, 746.339 555.323, 745.575 559.759 M 780 562.500 C 780 568.031, 780.262 569, 781.755 569 C 783.260 569, 783.481 568.129, 783.302 562.892 C 783.098 556.906, 783.143 556.794, 785.547 557.254 C 786.896 557.512, 788 557.335, 788 556.861 C 788 556.388, 786.200 556, 784 556 L 780 556 780 562.500 M 685 560 C 685 562.459, 685.383 563.073, 686.750 562.810 C 687.854 562.597, 688.500 561.560, 688.500 560 C 688.500 558.440, 687.854 557.403, 686.750 557.190 C 685.383 556.927, 685 557.541, 685 560 M 338.566 578.250 C 337.924 585.962, 334.222 649.584, 333.855 659.235 C 333.735 662.389, 333.895 665.229, 334.211 665.545 C 335.072 666.405, 342.983 656.872, 347.239 649.845 C 359.939 628.882, 362.022 601.879, 352.241 585.015 C 349.556 580.385, 341.324 571, 339.948 571 C 339.521 571, 338.899 574.263, 338.566 578.250" stroke="none" fill="#f3f3f3" fill-rule="evenodd"/></svg>