<svg xmlns="http://www.w3.org/2000/svg" width="1280" height="1268" viewBox="0 0 1280 1268" version="1.1"><path d="M 366.499 252.356 C 339.125 261.154, 318.298 321.637, 302.057 439.500 C 300.920 447.750, 299.329 459.225, 298.522 465 C 297.716 470.775, 295.679 487.200, 293.996 501.500 C 292.313 515.800, 290.519 530.425, 290.009 534 C 289.498 537.575, 288.815 542.975, 288.491 546 C 287.526 554.987, 285.040 570.041, 283.371 577 C 280.062 590.803, 270.972 602.513, 256.624 611.455 C 252.593 613.967, 242.592 619.010, 234.398 622.660 C 216.471 630.647, 212.564 633.009, 210.419 637.157 C 208.438 640.988, 209.019 647.241, 211.677 650.700 C 212.680 652.005, 225.425 660.193, 240 668.896 L 266.500 684.718 266.799 689.222 C 266.964 691.699, 266.418 701.325, 265.586 710.613 C 260.204 770.725, 258.975 785.678, 257.914 804 C 256.665 825.567, 257.184 856.882, 258.974 868 C 260.558 877.836, 263.077 886.979, 265.618 892.120 C 271.649 904.320, 286.176 908.383, 298.936 901.438 C 324.072 887.757, 351.337 822.987, 351.318 777 C 351.304 743.250, 343.605 721.123, 326.615 706 C 308.505 689.880, 304.855 685.128, 301.879 673.791 C 300.510 668.578, 300 663.153, 300 653.811 C 300 642.807, 301.890 624.257, 303.563 618.844 C 303.861 617.882, 308.352 615.409, 314.288 612.941 C 319.904 610.605, 326.421 607.848, 328.769 606.813 C 335.843 603.697, 360.964 593.161, 369.401 589.772 L 377.301 586.598 380.223 590.049 C 381.831 591.947, 383.843 594.850, 384.696 596.500 C 388.150 603.184, 393.549 609.095, 398.418 611.521 C 402.549 613.580, 404.843 614, 411.946 613.997 C 427.217 613.993, 446.775 607.370, 482 590.274 C 516.912 573.329, 540.536 563.646, 552.278 561.468 L 556.057 560.767 555.415 570.133 C 554.136 588.789, 557.974 611.855, 564.709 626 C 569.287 635.613, 579.586 646.054, 589.064 650.689 C 602.027 657.029, 610.051 658.449, 633 658.461 C 655.923 658.473, 662.259 657.701, 699 650.414 C 734.435 643.386, 753.237 640.297, 786.500 636.041 C 833.345 630.046, 911.043 627.027, 966.050 629.064 C 1001.570 630.379, 1012.299 629.796, 1023.750 625.928 L 1030 623.816 1030 619.859 C 1030 612.328, 1025.686 607.215, 1016.418 603.761 C 1010.923 601.714, 1008.785 601.556, 986.500 601.554 C 953.871 601.550, 860.643 603.708, 838.500 604.979 C 790.865 607.713, 765.374 611.117, 678 626.414 C 646.353 631.955, 618.840 633.854, 609.343 631.155 C 603.060 629.369, 595.901 624.058, 592.646 618.767 C 587.498 610.401, 585.998 601.380, 584.955 572.500 C 583.999 546.024, 583.055 534.488, 581.661 532.250 C 581.123 531.387, 577.882 531.007, 571.191 531.022 C 549.605 531.070, 528.576 538.464, 476.362 564.367 C 457.036 573.954, 445.477 579.039, 434.500 582.784 C 424.660 586.141, 416.989 588.111, 416.043 587.526 C 414.150 586.357, 413.872 580.902, 415.461 576.117 C 420.650 560.496, 446.989 536.853, 486.082 512.725 C 498.371 505.141, 508.919 499.694, 517.773 496.361 C 524.739 493.739, 533.029 493.386, 541.489 495.351 C 545.866 496.367, 546.876 497.118, 549.725 501.472 C 551.511 504.201, 554.441 507.203, 556.236 508.142 C 560.040 510.132, 577.647 513.687, 578.664 512.670 C 579.044 512.289, 578.827 508.581, 578.182 504.429 C 575.513 487.267, 566.214 473.141, 553.817 467.417 C 547.899 464.684, 546.743 464.506, 535.500 464.588 C 519.068 464.710, 508.270 467.901, 486.311 479.128 C 478.109 483.321, 459.866 494.730, 454.663 498.921 C 446.330 505.632, 437.629 513.555, 426.460 524.602 C 399.281 551.485, 394.747 555.071, 379.401 561.823 C 365.063 568.133, 309.559 585.893, 308.255 584.588 C 307.272 583.605, 313.881 531.486, 318.474 504 C 319.255 499.325, 320.621 491, 321.509 485.500 C 323.894 470.723, 327.879 448.964, 332.129 427.500 C 335.626 409.842, 343.963 373.300, 347.415 360.500 C 358.864 318.053, 368.298 294.439, 380.325 278.122 C 386.758 269.395, 386.880 268.410, 382.522 260.311 C 380.506 256.565, 378.552 253.198, 378.179 252.828 C 376.728 251.391, 370.310 251.131, 366.499 252.356 M 1046.356 599.874 C 1044.627 600.956, 1041.569 604.317, 1039.560 607.343 C 1035.909 612.844, 1035.909 612.845, 1037.505 616.673 C 1040.323 623.428, 1048.019 630, 1053.112 630 C 1057.331 630, 1063.620 625.340, 1065.875 620.542 C 1068.613 614.717, 1068.573 609.856, 1065.750 605.497 C 1061.698 599.238, 1051.908 596.400, 1046.356 599.874 M 559.250 682.689 C 560.796 683.093, 561 684.570, 561 695.373 C 561 703.550, 560.602 707.998, 559.800 708.800 C 558.867 709.733, 559.922 709.993, 564.550 709.970 C 569.080 709.946, 570.082 709.696, 568.750 708.920 C 567.394 708.130, 567 706.562, 567 701.950 C 567 696.186, 567.083 696, 569.640 696 C 571.092 696, 572.877 696.788, 573.608 697.750 C 574.817 699.343, 574.939 699.350, 574.968 697.832 C 574.986 696.914, 575.272 695.454, 575.605 694.587 C 576.122 693.239, 575.539 693.102, 571.605 693.641 L 567 694.272 567 689.136 C 567 684.236, 567.123 684, 569.671 684 C 571.140 684, 573.109 684.694, 574.047 685.542 C 575.606 686.953, 575.792 686.868, 576.237 684.542 L 576.723 682 567.111 682.116 C 561.825 682.180, 558.288 682.438, 559.250 682.689 M 838.987 684.535 C 838.423 686.018, 836.673 690.442, 835.099 694.366 C 833.524 698.290, 831.701 702.908, 831.047 704.629 C 830.393 706.350, 828.877 708.232, 827.679 708.811 C 825.862 709.690, 826.414 709.873, 831 709.917 C 834.622 709.951, 836.015 709.663, 835.081 709.071 C 833.982 708.376, 833.878 707.417, 834.618 704.836 C 835.519 701.696, 835.837 701.500, 840.037 701.500 C 844.390 701.500, 844.536 701.604, 845.969 705.750 C 847.403 709.897, 847.546 710, 851.910 710 C 855.826 710, 856.161 709.838, 854.603 708.699 C 853.625 707.984, 850.502 701.833, 847.662 695.030 C 844.823 688.227, 841.940 682.476, 841.256 682.249 C 840.572 682.023, 839.551 683.051, 838.987 684.535 M 943.854 686.218 C 937.852 687.751, 935.500 691.115, 935.500 698.163 C 935.500 703.677, 935.765 704.401, 938.766 707.082 C 941.572 709.590, 942.838 709.999, 947.766 709.993 C 956.841 709.983, 961.891 705.594, 961.965 697.654 C 962.047 688.743, 953.960 683.636, 943.854 686.218 M 608.250 687.080 C 609.727 687.941, 610 689.619, 610 697.850 C 610 704.100, 609.569 708.031, 608.800 708.800 C 607.867 709.733, 609.422 710, 615.800 710 L 624 710 624 707.309 C 624 704.856, 623.885 704.775, 622.701 706.395 C 621.836 707.577, 620.414 708.059, 618.451 707.836 C 615.696 707.522, 615.480 707.185, 615.195 702.750 C 614.902 698.183, 614.994 698, 617.585 698 C 619.067 698, 620.877 698.788, 621.608 699.750 C 622.806 701.329, 622.940 701.204, 622.968 698.474 C 622.999 695.542, 622.875 695.459, 619 695.829 L 615 696.210 615 692.105 C 615 688.226, 615.162 688, 617.950 688 C 619.705 688, 621.314 688.709, 621.920 689.750 C 622.481 690.712, 622.953 690.974, 622.970 690.332 C 622.986 689.689, 623.273 688.452, 623.607 687.582 C 624.133 686.211, 623.030 686.004, 615.357 686.030 C 608.851 686.053, 606.965 686.331, 608.250 687.080 M 655.250 687.080 C 656.727 687.941, 657 689.619, 657 697.850 C 657 704.100, 656.569 708.031, 655.800 708.800 C 654.867 709.733, 656.533 710, 663.300 710 L 672 710 672 707.345 C 672 704.836, 671.899 704.781, 670.171 706.345 C 668.250 708.083, 666.222 708.406, 663.582 707.393 C 662.298 706.900, 662 705.053, 662 697.593 C 662 691.776, 662.441 687.959, 663.200 687.200 C 664.133 686.267, 663.189 686.007, 658.950 686.030 C 654.760 686.054, 653.905 686.297, 655.250 687.080 M 702.750 686.662 C 704.456 687.351, 704.500 707.100, 702.800 708.800 C 701.867 709.733, 702.811 709.993, 707.050 709.970 C 711.240 709.946, 712.095 709.703, 710.750 708.920 C 709.270 708.058, 709 706.374, 709 698 C 709 689.626, 709.270 687.942, 710.750 687.080 C 712.086 686.302, 711.198 686.072, 707 686.109 C 703.975 686.136, 702.063 686.385, 702.750 686.662 M 742.166 687.033 C 743.082 687.568, 745.246 690.304, 746.975 693.114 L 750.118 698.222 747.371 702.187 C 745.860 704.367, 743.522 707.017, 742.177 708.076 L 739.730 710 743.972 710 C 746.965 710, 748.072 709.630, 747.732 708.744 C 747.467 708.053, 748.277 705.990, 749.532 704.158 L 751.814 700.827 754.502 705.414 C 757.030 709.728, 757.437 709.995, 761.345 709.921 C 763.630 709.878, 764.894 709.601, 764.154 709.306 C 763.413 709.010, 761.050 706.051, 758.903 702.729 L 755 696.689 757.629 693.095 C 759.075 691.118, 761.150 688.712, 762.240 687.750 C 764.169 686.046, 764.111 686, 760.052 686 C 757.611 686, 756.131 686.402, 756.482 686.971 C 756.812 687.504, 756.337 689.382, 755.426 691.144 L 753.770 694.346 751.907 691.923 C 750.883 690.590, 750.034 688.712, 750.022 687.750 C 750.004 686.328, 749.110 686.006, 745.250 686.030 C 741.689 686.053, 740.917 686.304, 742.166 687.033 M 884.750 686.662 C 885.642 687.022, 886 690.269, 886 698 C 886 705.731, 885.642 708.978, 884.750 709.338 C 884.063 709.615, 885.975 709.871, 889 709.906 C 892.198 709.943, 893.962 709.628, 893.215 709.154 C 892.508 708.705, 891.670 706.744, 891.354 704.796 C 890.425 699.071, 892.620 699.100, 897.676 704.880 C 901.725 709.509, 902.556 710, 906.328 709.996 L 910.500 709.993 907.500 708.136 C 904.475 706.264, 899 700.597, 899 699.337 C 899 698.963, 899.633 697.947, 900.407 697.079 C 901.777 695.541, 902.349 693.141, 902.115 689.911 C 901.935 687.419, 897.502 685.993, 890.203 686.079 C 886.516 686.122, 884.063 686.385, 884.750 686.662 M 996 686.324 C 996 689.552, 992.601 707.776, 991.824 708.712 C 990.979 709.730, 991.672 709.994, 995.128 709.970 C 998.590 709.946, 999.135 709.727, 997.746 708.918 C 996.346 708.102, 996.111 707.051, 996.580 703.698 C 997.595 696.436, 997.968 696.381, 1001.344 702.990 C 1003.135 706.497, 1005.050 709.517, 1005.599 709.700 C 1006.149 709.883, 1008.149 706.826, 1010.045 702.907 L 1013.492 695.782 1014.186 699.141 C 1014.568 700.989, 1015.152 704.188, 1015.485 706.250 C 1016.072 709.883, 1016.220 710, 1020.236 710 C 1023.973 710, 1024.199 709.866, 1022.526 708.642 C 1021.151 707.637, 1020.258 704.609, 1019.085 696.975 C 1018.209 691.275, 1016.974 686.490, 1016.325 686.274 C 1015.663 686.054, 1013.476 689.393, 1011.325 693.906 C 1009.221 698.319, 1007.253 701.946, 1006.950 701.965 C 1006.648 701.984, 1004.645 698.400, 1002.500 694 C 1000.355 689.600, 998.015 686, 997.300 686 C 996.585 686, 996 686.146, 996 686.324 M 1053.750 686.662 C 1054.642 687.022, 1055 690.269, 1055 698 C 1055 705.731, 1054.642 708.978, 1053.750 709.338 C 1053.063 709.615, 1056.438 709.878, 1061.250 709.921 L 1070 710 1069.968 707.250 C 1069.939 704.694, 1069.839 704.629, 1068.553 706.325 C 1067.647 707.520, 1066.193 708.037, 1064.335 707.825 C 1061.716 707.525, 1061.477 707.137, 1061.195 702.750 C 1060.905 698.229, 1061.015 698, 1063.477 698 C 1064.899 698, 1066.321 698.672, 1066.636 699.494 C 1067.431 701.567, 1069 700.353, 1069 697.665 C 1069 695.681, 1068.579 695.487, 1065 695.829 L 1061 696.210 1061 692.105 C 1061 688.335, 1061.215 688, 1063.640 688 C 1065.092 688, 1066.877 688.788, 1067.608 689.750 C 1068.816 691.341, 1068.939 691.250, 1068.968 688.750 L 1069 686 1060.750 686.079 C 1056.213 686.122, 1053.063 686.385, 1053.750 686.662 M 945.465 687.961 C 941.518 689.543, 940.287 692.733, 940.817 700.010 C 941.302 706.664, 950.959 710.752, 954.443 705.777 C 956.901 702.269, 956.507 693.669, 953.750 690.637 C 951.110 687.732, 948.300 686.825, 945.465 687.961 M 891 693 C 891 697.680, 891.162 698, 893.525 698 C 897.023 698, 898.696 693.711, 896.504 690.365 C 895.651 689.064, 894.064 688, 892.977 688 C 891.271 688, 891 688.686, 891 693 M 838.647 694 C 837.173 697.450, 837.188 697.505, 839.667 697.825 C 843.064 698.264, 843.265 697.854, 841.586 693.901 L 840.142 690.500 838.647 694 M 292.571 713.166 C 292.335 713.900, 291.653 723.950, 291.057 735.500 C 290.042 755.141, 289.386 766.984, 285.542 835 C 284.719 849.575, 283.757 864.763, 283.405 868.750 C 283.043 872.847, 283.156 876, 283.664 876 C 285.049 876, 295.268 865.147, 299.671 859 C 318.156 833.191, 328.393 798.057, 325.218 771.323 C 324.576 765.920, 323.362 758.800, 322.520 755.500 C 320.263 746.659, 312.892 732.418, 306.702 724.942 C 300.121 716.992, 293.198 711.223, 292.571 713.166" stroke="none" fill="#0a0a0a" fill-rule="evenodd"/><path d="M -0 634.001 L -0 1268.002 640.250 1267.751 L 1280.500 1267.500 1280.751 633.750 L 1281.002 0 640.501 0 L 0 0 -0 634.001 M 0.497 634.500 C 0.497 983.200, 0.611 1125.999, 0.750 951.832 C 0.889 777.665, 0.889 492.365, 0.750 317.832 C 0.611 143.299, 0.497 285.800, 0.497 634.500 M 366.499 252.356 C 339.125 261.154, 318.298 321.637, 302.057 439.500 C 300.920 447.750, 299.329 459.225, 298.522 465 C 297.716 470.775, 295.679 487.200, 293.996 501.500 C 292.313 515.800, 290.519 530.425, 290.009 534 C 289.498 537.575, 288.815 542.975, 288.491 546 C 287.526 554.987, 285.040 570.041, 283.371 577 C 280.062 590.803, 270.972 602.513, 256.624 611.455 C 252.593 613.967, 242.592 619.010, 234.398 622.660 C 216.471 630.647, 212.564 633.009, 210.419 637.157 C 208.438 640.988, 209.019 647.241, 211.677 650.700 C 212.680 652.005, 225.425 660.193, 240 668.896 L 266.500 684.718 266.799 689.222 C 266.964 691.699, 266.418 701.325, 265.586 710.613 C 260.204 770.725, 258.975 785.678, 257.914 804 C 256.665 825.567, 257.184 856.882, 258.974 868 C 260.558 877.836, 263.077 886.979, 265.618 892.120 C 271.649 904.320, 286.176 908.383, 298.936 901.438 C 324.072 887.757, 351.337 822.987, 351.318 777 C 351.304 743.250, 343.605 721.123, 326.615 706 C 308.505 689.880, 304.855 685.128, 301.879 673.791 C 300.510 668.578, 300 663.153, 300 653.811 C 300 642.807, 301.890 624.257, 303.563 618.844 C 303.861 617.882, 308.352 615.409, 314.288 612.941 C 319.904 610.605, 326.421 607.848, 328.769 606.813 C 335.843 603.697, 360.964 593.161, 369.401 589.772 L 377.301 586.598 380.223 590.049 C 381.831 591.947, 383.843 594.850, 384.696 596.500 C 388.150 603.184, 393.549 609.095, 398.418 611.521 C 402.549 613.580, 404.843 614, 411.946 613.997 C 427.217 613.993, 446.775 607.370, 482 590.274 C 516.912 573.329, 540.536 563.646, 552.278 561.468 L 556.057 560.767 555.415 570.133 C 554.136 588.789, 557.974 611.855, 564.709 626 C 569.287 635.613, 579.586 646.054, 589.064 650.689 C 602.027 657.029, 610.051 658.449, 633 658.461 C 655.923 658.473, 662.259 657.701, 699 650.414 C 734.435 643.386, 753.237 640.297, 786.500 636.041 C 833.345 630.046, 911.043 627.027, 966.050 629.064 C 1001.570 630.379, 1012.299 629.796, 1023.750 625.928 L 1030 623.816 1030 619.859 C 1030 612.328, 1025.686 607.215, 1016.418 603.761 C 1010.923 601.714, 1008.785 601.556, 986.500 601.554 C 953.871 601.550, 860.643 603.708, 838.500 604.979 C 790.865 607.713, 765.374 611.117, 678 626.414 C 646.353 631.955, 618.840 633.854, 609.343 631.155 C 603.060 629.369, 595.901 624.058, 592.646 618.767 C 587.498 610.401, 585.998 601.380, 584.955 572.500 C 583.999 546.024, 583.055 534.488, 581.661 532.250 C 581.123 531.387, 577.882 531.007, 571.191 531.022 C 549.605 531.070, 528.576 538.464, 476.362 564.367 C 457.036 573.954, 445.477 579.039, 434.500 582.784 C 424.660 586.141, 416.989 588.111, 416.043 587.526 C 414.150 586.357, 413.872 580.902, 415.461 576.117 C 420.650 560.496, 446.989 536.853, 486.082 512.725 C 498.371 505.141, 508.919 499.694, 517.773 496.361 C 524.739 493.739, 533.029 493.386, 541.489 495.351 C 545.866 496.367, 546.876 497.118, 549.725 501.472 C 551.511 504.201, 554.441 507.203, 556.236 508.142 C 560.040 510.132, 577.647 513.687, 578.664 512.670 C 579.044 512.289, 578.827 508.581, 578.182 504.429 C 575.513 487.267, 566.214 473.141, 553.817 467.417 C 547.899 464.684, 546.743 464.506, 535.500 464.588 C 519.068 464.710, 508.270 467.901, 486.311 479.128 C 478.109 483.321, 459.866 494.730, 454.663 498.921 C 446.330 505.632, 437.629 513.555, 426.460 524.602 C 399.281 551.485, 394.747 555.071, 379.401 561.823 C 365.063 568.133, 309.559 585.893, 308.255 584.588 C 307.272 583.605, 313.881 531.486, 318.474 504 C 319.255 499.325, 320.621 491, 321.509 485.500 C 323.894 470.723, 327.879 448.964, 332.129 427.500 C 335.626 409.842, 343.963 373.300, 347.415 360.500 C 358.864 318.053, 368.298 294.439, 380.325 278.122 C 386.758 269.395, 386.880 268.410, 382.522 260.311 C 380.506 256.565, 378.552 253.198, 378.179 252.828 C 376.728 251.391, 370.310 251.131, 366.499 252.356 M 1046.356 599.874 C 1044.627 600.956, 1041.569 604.317, 1039.560 607.343 C 1035.909 612.844, 1035.909 612.845, 1037.505 616.673 C 1040.323 623.428, 1048.019 630, 1053.112 630 C 1057.331 630, 1063.620 625.340, 1065.875 620.542 C 1068.613 614.717, 1068.573 609.856, 1065.750 605.497 C 1061.698 599.238, 1051.908 596.400, 1046.356 599.874 M 559.250 682.689 C 560.796 683.093, 561 684.570, 561 695.373 C 561 703.550, 560.602 707.998, 559.800 708.800 C 558.867 709.733, 559.922 709.993, 564.550 709.970 C 569.080 709.946, 570.082 709.696, 568.750 708.920 C 567.394 708.130, 567 706.562, 567 701.950 C 567 696.186, 567.083 696, 569.640 696 C 571.092 696, 572.877 696.788, 573.608 697.750 C 574.817 699.343, 574.939 699.350, 574.968 697.832 C 574.986 696.914, 575.272 695.454, 575.605 694.587 C 576.122 693.239, 575.539 693.102, 571.605 693.641 L 567 694.272 567 689.136 C 567 684.236, 567.123 684, 569.671 684 C 571.140 684, 573.109 684.694, 574.047 685.542 C 575.606 686.953, 575.792 686.868, 576.237 684.542 L 576.723 682 567.111 682.116 C 561.825 682.180, 558.288 682.438, 559.250 682.689 M 838.987 684.535 C 838.423 686.018, 836.673 690.442, 835.099 694.366 C 833.524 698.290, 831.701 702.908, 831.047 704.629 C 830.393 706.350, 828.877 708.232, 827.679 708.811 C 825.862 709.690, 826.414 709.873, 831 709.917 C 834.622 709.951, 836.015 709.663, 835.081 709.071 C 833.982 708.376, 833.878 707.417, 834.618 704.836 C 835.519 701.696, 835.837 701.500, 840.037 701.500 C 844.390 701.500, 844.536 701.604, 845.969 705.750 C 847.403 709.897, 847.546 710, 851.910 710 C 855.826 710, 856.161 709.838, 854.603 708.699 C 853.625 707.984, 850.502 701.833, 847.662 695.030 C 844.823 688.227, 841.940 682.476, 841.256 682.249 C 840.572 682.023, 839.551 683.051, 838.987 684.535 M 943.854 686.218 C 937.852 687.751, 935.500 691.115, 935.500 698.163 C 935.500 703.677, 935.765 704.401, 938.766 707.082 C 941.572 709.590, 942.838 709.999, 947.766 709.993 C 956.841 709.983, 961.891 705.594, 961.965 697.654 C 962.047 688.743, 953.960 683.636, 943.854 686.218 M 608.250 687.080 C 609.727 687.941, 610 689.619, 610 697.850 C 610 704.100, 609.569 708.031, 608.800 708.800 C 607.867 709.733, 609.422 710, 615.800 710 L 624 710 624 707.309 C 624 704.856, 623.885 704.775, 622.701 706.395 C 621.836 707.577, 620.414 708.059, 618.451 707.836 C 615.696 707.522, 615.480 707.185, 615.195 702.750 C 614.902 698.183, 614.994 698, 617.585 698 C 619.067 698, 620.877 698.788, 621.608 699.750 C 622.806 701.329, 622.940 701.204, 622.968 698.474 C 622.999 695.542, 622.875 695.459, 619 695.829 L 615 696.210 615 692.105 C 615 688.226, 615.162 688, 617.950 688 C 619.705 688, 621.314 688.709, 621.920 689.750 C 622.481 690.712, 622.953 690.974, 622.970 690.332 C 622.986 689.689, 623.273 688.452, 623.607 687.582 C 624.133 686.211, 623.030 686.004, 615.357 686.030 C 608.851 686.053, 606.965 686.331, 608.250 687.080 M 655.250 687.080 C 656.727 687.941, 657 689.619, 657 697.850 C 657 704.100, 656.569 708.031, 655.800 708.800 C 654.867 709.733, 656.533 710, 663.300 710 L 672 710 672 707.345 C 672 704.836, 671.899 704.781, 670.171 706.345 C 668.250 708.083, 666.222 708.406, 663.582 707.393 C 662.298 706.900, 662 705.053, 662 697.593 C 662 691.776, 662.441 687.959, 663.200 687.200 C 664.133 686.267, 663.189 686.007, 658.950 686.030 C 654.760 686.054, 653.905 686.297, 655.250 687.080 M 702.750 686.662 C 704.456 687.351, 704.500 707.100, 702.800 708.800 C 701.867 709.733, 702.811 709.993, 707.050 709.970 C 711.240 709.946, 712.095 709.703, 710.750 708.920 C 709.270 708.058, 709 706.374, 709 698 C 709 689.626, 709.270 687.942, 710.750 687.080 C 712.086 686.302, 711.198 686.072, 707 686.109 C 703.975 686.136, 702.063 686.385, 702.750 686.662 M 742.166 687.033 C 743.082 687.568, 745.246 690.304, 746.975 693.114 L 750.118 698.222 747.371 702.187 C 745.860 704.367, 743.522 707.017, 742.177 708.076 L 739.730 710 743.972 710 C 746.965 710, 748.072 709.630, 747.732 708.744 C 747.467 708.053, 748.277 705.990, 749.532 704.158 L 751.814 700.827 754.502 705.414 C 757.030 709.728, 757.437 709.995, 761.345 709.921 C 763.630 709.878, 764.894 709.601, 764.154 709.306 C 763.413 709.010, 761.050 706.051, 758.903 702.729 L 755 696.689 757.629 693.095 C 759.075 691.118, 761.150 688.712, 762.240 687.750 C 764.169 686.046, 764.111 686, 760.052 686 C 757.611 686, 756.131 686.402, 756.482 686.971 C 756.812 687.504, 756.337 689.382, 755.426 691.144 L 753.770 694.346 751.907 691.923 C 750.883 690.590, 750.034 688.712, 750.022 687.750 C 750.004 686.328, 749.110 686.006, 745.250 686.030 C 741.689 686.053, 740.917 686.304, 742.166 687.033 M 884.750 686.662 C 885.642 687.022, 886 690.269, 886 698 C 886 705.731, 885.642 708.978, 884.750 709.338 C 884.063 709.615, 885.975 709.871, 889 709.906 C 892.198 709.943, 893.962 709.628, 893.215 709.154 C 892.508 708.705, 891.670 706.744, 891.354 704.796 C 890.425 699.071, 892.620 699.100, 897.676 704.880 C 901.725 709.509, 902.556 710, 906.328 709.996 L 910.500 709.993 907.500 708.136 C 904.475 706.264, 899 700.597, 899 699.337 C 899 698.963, 899.633 697.947, 900.407 697.079 C 901.777 695.541, 902.349 693.141, 902.115 689.911 C 901.935 687.419, 897.502 685.993, 890.203 686.079 C 886.516 686.122, 884.063 686.385, 884.750 686.662 M 996 686.324 C 996 689.552, 992.601 707.776, 991.824 708.712 C 990.979 709.730, 991.672 709.994, 995.128 709.970 C 998.590 709.946, 999.135 709.727, 997.746 708.918 C 996.346 708.102, 996.111 707.051, 996.580 703.698 C 997.595 696.436, 997.968 696.381, 1001.344 702.990 C 1003.135 706.497, 1005.050 709.517, 1005.599 709.700 C 1006.149 709.883, 1008.149 706.826, 1010.045 702.907 L 1013.492 695.782 1014.186 699.141 C 1014.568 700.989, 1015.152 704.188, 1015.485 706.250 C 1016.072 709.883, 1016.220 710, 1020.236 710 C 1023.973 710, 1024.199 709.866, 1022.526 708.642 C 1021.151 707.637, 1020.258 704.609, 1019.085 696.975 C 1018.209 691.275, 1016.974 686.490, 1016.325 686.274 C 1015.663 686.054, 1013.476 689.393, 1011.325 693.906 C 1009.221 698.319, 1007.253 701.946, 1006.950 701.965 C 1006.648 701.984, 1004.645 698.400, 1002.500 694 C 1000.355 689.600, 998.015 686, 997.300 686 C 996.585 686, 996 686.146, 996 686.324 M 1053.750 686.662 C 1054.642 687.022, 1055 690.269, 1055 698 C 1055 705.731, 1054.642 708.978, 1053.750 709.338 C 1053.063 709.615, 1056.438 709.878, 1061.250 709.921 L 1070 710 1069.968 707.250 C 1069.939 704.694, 1069.839 704.629, 1068.553 706.325 C 1067.647 707.520, 1066.193 708.037, 1064.335 707.825 C 1061.716 707.525, 1061.477 707.137, 1061.195 702.750 C 1060.905 698.229, 1061.015 698, 1063.477 698 C 1064.899 698, 1066.321 698.672, 1066.636 699.494 C 1067.431 701.567, 1069 700.353, 1069 697.665 C 1069 695.681, 1068.579 695.487, 1065 695.829 L 1061 696.210 1061 692.105 C 1061 688.335, 1061.215 688, 1063.640 688 C 1065.092 688, 1066.877 688.788, 1067.608 689.750 C 1068.816 691.341, 1068.939 691.250, 1068.968 688.750 L 1069 686 1060.750 686.079 C 1056.213 686.122, 1053.063 686.385, 1053.750 686.662 M 945.465 687.961 C 941.518 689.543, 940.287 692.733, 940.817 700.010 C 941.302 706.664, 950.959 710.752, 954.443 705.777 C 956.901 702.269, 956.507 693.669, 953.750 690.637 C 951.110 687.732, 948.300 686.825, 945.465 687.961 M 891 693 C 891 697.680, 891.162 698, 893.525 698 C 897.023 698, 898.696 693.711, 896.504 690.365 C 895.651 689.064, 894.064 688, 892.977 688 C 891.271 688, 891 688.686, 891 693 M 838.647 694 C 837.173 697.450, 837.188 697.505, 839.667 697.825 C 843.064 698.264, 843.265 697.854, 841.586 693.901 L 840.142 690.500 838.647 694 M 292.571 713.166 C 292.335 713.900, 291.653 723.950, 291.057 735.500 C 290.042 755.141, 289.386 766.984, 285.542 835 C 284.719 849.575, 283.757 864.763, 283.405 868.750 C 283.043 872.847, 283.156 876, 283.664 876 C 285.049 876, 295.268 865.147, 299.671 859 C 318.156 833.191, 328.393 798.057, 325.218 771.323 C 324.576 765.920, 323.362 758.800, 322.520 755.500 C 320.263 746.659, 312.892 732.418, 306.702 724.942 C 300.121 716.992, 293.198 711.223, 292.571 713.166" stroke="none" fill="#fbfbfb" fill-rule="evenodd"/></svg>